<svg version="1.2" xmlns="http://www.w3.org/2000/svg" viewBox="0 0 1244 154" width="1244" height="154">
	<title>Новый проект</title>
	<style>
		.s0 { fill: #ffffff } 
	</style>
	<path id="SHIKILYTICS" class="s0" aria-label="SHIKILYTICS"  d="m4.3 142.4l4.4-24 2-1q20 11 36 11 9.4 0 15.4-4 6-4.1 6-11.2 0-4.9-3.3-8.9-3.2-3.9-8.4-6.6-5.2-2.8-11.5-5.6-6.3-2.7-12.6-6.3-6.3-3.6-11.5-8.1-5.1-4.6-8.5-11.9-3.2-7.4-3.2-16.8 0-20.1 14.1-31.6 14-11.4 38.9-11.4 21.3 0 38 4.6l-5.6 25.2-1.6 0.8q-15.4-8.2-29.4-8.2-7.9 0-12.8 3.7-4.8 3.7-4.8 10.3 0 5.1 3.4 9.2 3.3 4.1 8.5 7 5.2 3 11.6 5.9 6.4 2.8 12.8 6.4 6.4 3.6 11.6 8.1 5.3 4.4 8.6 11.4 3.3 6.9 3.3 15.8 0 19.6-14.9 32.1-14.9 12.5-40.7 12.5-10.2 0-22.7-1.8-12.4-2-23.1-6.6zm164.3 5.6h-40.5q1.3-32.8 1.3-69.8 0-35-1.1-69.8h40.3q-1.4 35.3-1.4 56.8 9.2 0.8 26.2 0.8 11.3 0 27.6-1 0-23-0.9-56.6h39.9q-1.2 46.4-1.2 69.8 0 22.9 1.2 69.8h-39.9q0.9-36.9 0.9-59.8-9.3-0.4-27.6-0.4-13.4 0-26.2 0.8 0 20.6 1.4 59.4zm163 0h-40.4q1.2-46.9 1.2-69.8 0-23.4-1.2-69.8h40.2q-1.2 35.1-1.2 69.8 0 29.5 1.4 69.8zm71.6 0h-40.6q1.2-34.9 1.2-69.8 0-31.1-1-69.8h40.2q-1.4 54.6-1.4 69.8 0 23.3 1.6 69.8zm37-79.6l56 78-48.2 2.8q-11.9-21.8-30-50.4l-13.6-19.6 50.2-71.4 35 1.2q-26.5 30.7-35.6 42zm112.2 79.6h-40.4q1.2-46.9 1.2-69.8 0-23.3-1.2-69.8h40.2q-1.2 35.1-1.2 69.8 0 29.5 1.4 69.8zm121.5-24.2l-4.6 24.2h-85.9q1.2-36.3 1.2-69.8 0-36.2-1.2-69.8h40.3q-1.3 31.8-1.3 69.8 0 31.2 0.8 49.2 23.8-1.1 50.7-3.6zm73.5 24.2h-38.1q1.3-38.1 1.3-53.8l-47.1-83.6 47.4-3.4q3.7 10.7 11.7 29.6 6.1 14.7 10.1 29.6h2.1q5.8-17.8 11.5-29.6l14.3-29 33.2 1.3q-28 44.2-38.9 63.1l-8.8 15.2q0 16.4 1.3 60.6zm132 0h-40.2q1.4-34.2 1.4-69.2 0-22.4-0.9-48.8-18 0.5-41.9 2.4l4.6-24.2q23 0.9 60 0.9 34.6 0 60-0.9l-4.4 24.2q-28.2-2.2-38.6-2.4-1 26.4-1 48.8 0 31.3 1 69.2zm100.9 0h-40.4q1.2-46.9 1.2-69.8 0-23.3-1.2-69.8h40.2q-1.2 35.1-1.2 69.8 0 29.5 1.4 69.8zm136.2-29.8l7.4 14.8q-10.5 9.7-24.4 14.1-13.7 4.3-27.4 4.3-30.9 0-49.2-18.9-18.4-19-18.4-49.9 0-14.6 4.4-27.1 4.4-12.6 12-21.5 7.7-9.1 17.9-15.5 10.1-6.4 21.8-9.5 11.6-3.2 23.9-3.2 20.1 0 36.8 5l-5.6 25.2-1.8 0.8q-16-8.2-30.2-8.2-17.3 0-28.4 12.8-11.2 12.8-11.2 35.2 0 22.8 11.3 36.1 11.3 13.1 29.5 13.1 6.7 0 15.3-1.7 8.7-1.9 16.3-5.9zm19 24.3l4.4-24.1 1.9-0.9q20 10.9 36 10.9 9.4 0 15.4-4 6-4.1 6-11.1 0-5-3.3-8.9-3.2-3.9-8.4-6.7-5.2-2.8-11.5-5.5-6.3-2.8-12.6-6.4-6.3-3.6-11.4-8.1-5.2-4.6-8.5-11.9-3.3-7.4-3.3-16.8 0-20.1 14.1-31.5 14.1-11.5 39-11.5 21.3 0 38 4.6l-5.7 25.2-1.6 0.8q-15.4-8.2-29.4-8.2-7.9 0-12.8 3.7-4.7 3.7-4.7 10.4 0 5 3.3 9.1 3.3 4.1 8.5 7.1 5.2 2.9 11.6 5.8 6.4 2.9 12.8 6.5 6.4 3.5 11.6 8 5.3 4.4 8.6 11.4 3.3 6.9 3.3 15.8 0 19.6-14.9 32.1-14.9 12.5-40.6 12.5-10.3 0-22.8-1.8-12.4-2-23-6.5z"/>
</svg>